<svg width="40" height="40" viewBox="0 0 40 40" fill="none" xmlns="http://www.w3.org/2000/svg">
<circle cx="20" cy="20" r="20" fill="#586CF5"/>
<path d="M25.0899 10.82C24.1702 10.0636 23.0933 9.52204 21.9376 9.23485C20.7819 8.94767 19.5767 8.9221 18.4099 9.16001C16.8563 9.47383 15.4309 10.2421 14.3146 11.3673C13.1983 12.4925 12.4414 13.9239 12.1399 15.48C11.9198 16.6467 11.9598 17.8477 12.2571 18.9971C12.5544 20.1466 13.1017 21.2163 13.8599 22.13C14.5636 22.9241 14.967 23.9395 14.9999 25V28C14.9999 28.7957 15.316 29.5587 15.8786 30.1213C16.4412 30.6839 17.2043 31 17.9999 31H21.9999C22.7956 31 23.5587 30.6839 24.1213 30.1213C24.6839 29.5587 24.9999 28.7957 24.9999 28V25.19C25.0335 24.0192 25.4637 22.8944 26.2199 22C27.5451 20.3608 28.1697 18.2648 27.9581 16.1676C27.7465 14.0704 26.7158 12.1415 25.0899 10.8V10.82ZM22.9999 28C22.9999 28.2652 22.8946 28.5196 22.707 28.7071C22.5195 28.8947 22.2652 29 21.9999 29H17.9999C17.7347 29 17.4804 28.8947 17.2928 28.7071C17.1053 28.5196 16.9999 28.2652 16.9999 28V27H22.9999V28ZM24.6699 20.76C23.6644 21.9526 23.0778 23.442 22.9999 25H20.9999V22C20.9999 21.7348 20.8946 21.4804 20.707 21.2929C20.5195 21.1054 20.2652 21 19.9999 21C19.7347 21 19.4804 21.1054 19.2928 21.2929C19.1053 21.4804 18.9999 21.7348 18.9999 22V25H16.9999C16.9736 23.4681 16.4069 21.9948 15.3999 20.84C14.7356 20.044 14.2888 19.0894 14.1033 18.0694C13.9177 17.0493 13.9996 15.9985 14.341 15.0195C14.6825 14.0406 15.2718 13.1668 16.0515 12.4833C16.8312 11.7999 17.7747 11.3302 18.7899 11.12C19.6625 10.9404 20.5641 10.9572 21.4293 11.1695C22.2945 11.3817 23.1016 11.7839 23.792 12.347C24.4824 12.91 25.0387 13.6197 25.4206 14.4245C25.8025 15.2294 26.0004 16.1092 25.9999 17C26.0073 18.3699 25.537 19.6995 24.6699 20.76Z" fill="white"/>
</svg>
